<?xml version="1.0" encoding="UTF-8"?>
<svg width="270px" height="287px" viewBox="0 0 270 287" version="1.1" xmlns="http://www.w3.org/2000/svg" xmlns:xlink="http://www.w3.org/1999/xlink">
    <!-- Generator: Sketch 57.1 (83088) - https://sketch.com -->
    <title>Untitled</title>
    <desc>Created with Sketch.</desc>
    <defs>
        <path d="M102.272727,0 C133.903581,0 159.545455,25.6418734 159.545455,57.2727273 L159.545681,63.4982971 C165.349983,64.4721866 169.772727,69.520249 169.772727,75.6012987 L169.772727,89.8701299 C169.772727,96.0629335 165.185932,101.184434 159.224296,102.022677 C157.092106,122.248797 144.428798,139.336481 126.819102,147.702321 L126.818,166.492 L132.545455,166.492857 C172.309957,166.492857 204.545455,198.728355 204.545455,238.492857 L204.545455,249.228571 L0,249.228571 L0,238.492857 C0,198.728355 32.235498,166.492857 72,166.492857 L77.727,166.492 L77.7271218,147.702686 C60.1170253,139.336979 47.4533795,122.249091 45.3189272,102.021767 C39.3590107,101.183863 34.7727273,96.0625882 34.7727273,89.8701299 L34.7727273,75.6012987 C34.7727273,69.5199397 39.1959212,64.4716731 45.0006592,63.4981486 L45,57.2727273 C45,25.6418734 70.6418734,0 102.272727,0 Z" id="path-1"></path>
        <path d="M102.272727,0 C133.903581,0 159.545455,25.6418734 159.545455,57.2727273 L159.545681,63.4982971 C165.349983,64.4721866 169.772727,69.520249 169.772727,75.6012987 L169.772727,89.8701299 C169.772727,96.0629335 165.185932,101.184434 159.224296,102.022677 C157.092106,122.248797 144.428798,139.336481 126.819102,147.702321 L126.818,166.492 L132.545455,166.492857 C172.309957,166.492857 204.545455,198.728355 204.545455,238.492857 L204.545455,249.228571 L0,249.228571 L0,238.492857 C0,198.728355 32.235498,166.492857 72,166.492857 L77.727,166.492 L77.7271218,147.702686 C60.1170253,139.336979 47.4533795,122.249091 45.3189272,102.021767 C39.3590107,101.183863 34.7727273,96.0625882 34.7727273,89.8701299 L34.7727273,75.6012987 C34.7727273,69.5199397 39.1959212,64.4716731 45.0006592,63.4981486 L45,57.2727273 C45,25.6418734 70.6418734,0 102.272727,0 Z" id="path-3"></path>
        <path d="M160.251795,21.7500195 C186.648351,32.4262978 205.272727,58.3015448 205.272727,88.526748 L205.272727,99 L0.7272727,99 L0.7272727,88.526748 C0.7272727,58.3019213 19.3511855,32.4269425 45.7493557,21.7514667 C46.3612419,7.7895407 60.3537184,2.3251384 78.454364,0.3085999 L78.454545,19.4727273 C78.454545,33.0288075 89.44392,44.0181818 103,44.0181818 C116.55608,44.0181818 127.545455,33.0288075 127.545455,19.4727273 L127.545455,19.4727273 L127.546452,0.3085999 C145.646788,2.325168 159.63911,7.7893115 160.251795,21.7500195 Z" id="path-5"></path>
        <path d="M160.251795,21.7500195 C186.648351,32.4262978 205.272727,58.3015448 205.272727,88.526748 L205.272727,99 L0.7272727,99 L0.7272727,88.526748 C0.7272727,58.3019213 19.3511855,32.4269425 45.7493557,21.7514667 C46.3612419,7.7895407 60.3537184,2.3251384 78.454364,0.3085999 L78.454545,19.4727273 C78.454545,33.0288075 89.44392,44.0181818 103,44.0181818 C116.55608,44.0181818 127.545455,33.0288075 127.545455,19.4727273 L127.545455,19.4727273 L127.546452,0.3085999 C145.646788,2.325168 159.63911,7.7893115 160.251795,21.7500195 Z" id="path-7"></path>
        <path d="M160.251795,21.7500195 C186.648351,32.4262978 205.272727,58.3015448 205.272727,88.526748 L205.272727,99 L0.7272727,99 L0.7272727,88.526748 C0.7272727,58.3019213 19.3511855,32.4269425 45.7493557,21.7514667 C46.3612419,7.7895407 60.3537184,2.3251384 78.454364,0.3085999 L78.454545,19.4727273 C78.454545,33.0288075 89.44392,44.0181818 103,44.0181818 C116.55608,44.0181818 127.545455,33.0288075 127.545455,19.4727273 L127.545455,19.4727273 L127.546452,0.3085999 C145.646788,2.325168 159.63911,7.7893115 160.251795,21.7500195 Z" id="path-9"></path>
        <rect id="path-11" x="0" y="0" width="270" height="286"></rect>
        <path d="M61.5164441,69.6931649 C49.7310021,70.0787299 44.4737521,75.689569 40.514527,69.9874429 C37.5429122,65.7073354 38.7862965,58.5095811 41.5629188,54.4600078 C45.5137119,48.6969862 50.8733694,51.4844765 56.8661375,50.8270022 C58.495642,50.6483298 60.1325246,50.1976336 61.5164441,49.4605263 C62.9003635,50.1976336 64.5368947,50.6483298 66.1663993,50.8270022 C72.1595187,51.4844765 77.518825,48.6969862 81.469969,54.4600078 C84.24624,58.5095811 85.489625,65.7073354 82.51801,69.9874429 C78.558785,75.689569 73.301886,69.3075998 61.5164441,69.6931649 Z M118.733735,0.5131579 C115.227628,14.8657717 113.616667,29.5081262 111.074467,44.0264987 C110.544739,47.0529424 109.964779,50.0686051 109.348989,53.0802248 C109.219718,53.712601 109.092204,56.0608491 108.466578,56.3583388 C106.571432,57.2599043 102.709129,52.4653679 101.676371,51.3828828 C99.082534,48.6643729 96.510826,45.9212687 93.351782,43.7879679 C86.968707,39.4775681 79.495616,36.9288598 71.7193713,36.3241101 C68.4658331,36.0707553 64.0664257,36.5124416 61.0001187,38.3560017 C57.9338118,36.5124416 53.5344044,36.0707553 50.2805149,36.3241101 C42.5042707,36.9288598 35.0311794,39.4775681 28.6481043,43.7879679 C25.4890599,45.9212687 22.9177039,48.6643729 20.3235148,51.3828828 C19.2907571,52.4653679 15.4284539,57.2599043 13.5333083,56.3583388 C12.9076819,56.0608491 12.780168,53.712601 12.6508976,53.0802248 C12.035107,50.0686051 11.4551468,47.0529424 10.9254194,44.0264987 C8.3835707,29.5081262 6.7726092,14.8657717 3.266502,0.5131579 C2.2463903,0.5131579 1.3513336,19.6309971 1.2375195,21.4122292 C0.7741836,28.6466527 0.2332152,35.7200342 0.9245306,42.9608589 C2.1164174,55.4513827 3.3588882,71.1135575 12.9143562,80.651757 C21.5484217,89.270535 34.0843601,91.072333 44.8968261,96.512538 C46.2889414,97.212969 48.1356106,98.077812 50.1270064,98.786329 C52.2248394,100.38024 56.3853778,101.467105 61.1782168,101.467105 C66.2057096,101.467105 70.5373203,100.271419 72.5220419,98.548472 C74.2633276,97.890491 75.863751,97.136154 77.10306,96.512538 C87.914699,91.071138 100.451464,89.270535 109.08553,80.651757 C118.640998,71.1135575 119.883469,55.4513827 121.075707,42.9608589 C121.766671,35.7200342 121.225703,28.6466527 120.762718,21.4122292 C120.648553,19.6309971 119.753496,0.5131579 118.733735,0.5131579 Z" id="path-13"></path>
        <path d="M22.3779102,44.1368745 C22.5036933,44.0813088 22.1915435,44.0599609 21.4414608,44.0729331 C22.3530997,44.0710945 22.6652495,44.0923402 22.3779102,44.1368745 M124.135696,63.2820736 C123.865629,59.894064 123.387076,56.5265696 122.583067,53.2163197 C121.944539,50.5853924 121.072067,48.07491 120.040307,45.5647585 C119.41726,44.0482776 117.961994,41.9653084 117.791008,40.3293752 C117.622431,38.7179281 118.881254,36.9327624 119.149945,35.0566011 C119.410724,33.2307356 119.366343,31.3108965 118.991345,29.5015756 C118.139515,25.3925509 115.316367,21.5714028 110.957103,20.5003033 C109.983829,20.2610679 107.926502,20.5558933 107.238776,19.989736 C106.450249,19.3405246 105.90117,17.1288383 105.187298,16.2417151 C103.151988,13.7127027 99.97758,12.0840492 96.629779,12.6518609 C94.164426,13.0697783 95.580129,13.5790221 93.731975,12.1297124 C92.704343,11.3239888 91.936458,10.09373 90.938413,9.221497 C89.438078,7.9111622 87.716872,6.7894362 85.936149,5.8688929 C81.276543,3.4603254 75.962239,1.7095725 70.757339,0.85620036 C61.262669,-0.70064948 51.129128,0.6566721 41.925856,3.1231458 C37.34641,4.3504266 32.736001,5.9079382 28.482701,7.9677448 C26.658973,8.8508973 25.6062266,9.5834936 23.7047469,9.8147875 C20.709925,10.1791003 18.1737013,10.1609012 15.3367913,11.4295436 C6.6079433,15.3334148 2.6763149,24.3902771 6.0729694,33.0573478 C6.7562222,34.8004902 7.6813315,36.3311996 8.9566681,37.7391477 C10.5117049,39.4558187 11.0742016,39.1179773 9.7348745,41.0920828 C7.7319046,44.0439759 6.0433824,47.1917576 4.6686198,50.460315 C1.06004,59.0420154 0.4562591,68.7073893 0.6912348,77.8595486 C0.7734591,81.063582 0.911073,84.3069916 1.4168039,87.4802519 C1.635266,88.8537872 1.6965041,91.436404 2.7279201,92.455554 C3.2511969,92.972408 3.99672,93.260615 4.740523,93.0548 C6.4885633,92.571035 5.8875347,91.282539 5.9281308,90.0863623 C6.1324874,84.0766903 5.8565715,78.7602383 7.2874118,72.8230318 C8.3442863,68.4363882 10.1057439,64.4524409 12.3884141,60.5300396 C15.2910347,55.5411714 18.4245026,51.159822 22.416337,46.8879981 C23.3548636,45.8834081 23.5599083,45.4575493 24.8183872,45.3847529 C25.7713633,45.3298247 27.165392,45.9816832 28.091877,46.207352 C30.134755,46.7046836 32.181418,47.1963901 34.261451,47.5312534 C38.085741,48.1470446 41.872531,48.1884062 45.731224,48.0676304 C53.325101,47.8303803 60.951662,47.298305 68.314348,45.3880618 C73.204113,44.1197504 77.539294,41.8428782 82.222982,40.1738557 C82.306583,40.1440754 83.480429,39.3085715 83.686162,39.3426534 C83.973431,39.3899711 85.70771,41.2075643 86.000483,41.436542 C88.276273,43.2193915 90.772588,43.9678706 93.230372,45.3483547 C96.26063,47.0504664 93.326014,44.6147657 94.997334,46.7361184 C95.484487,47.353895 95.733913,48.4994453 96.124736,49.1992832 C97.368077,51.4288377 99.097884,53.3883839 101.166908,54.9432484 C103.166094,56.4455009 106.170549,57.1711485 107.189924,59.1263931 C107.976043,60.6349326 108.24095,62.6851433 108.875349,64.2955978 C110.539445,68.5194422 112.737139,72.4583881 114.934832,76.4367103 C116.705235,79.642729 118.641806,82.4434042 118.838594,86.1070475 C118.907057,87.3823077 117.69227,95.031884 120.651313,92.705377 C121.089957,92.360587 122.035708,88.4603559 122.230088,87.7985706 C123.018615,85.1094062 123.299004,82.3021131 123.656112,79.5391596 C124.366199,74.0443565 124.599455,68.8162529 124.135696,63.2820736" id="path-15"></path>
    </defs>
    <g id="Page-1" stroke="none" stroke-width="1" fill="none" fill-rule="evenodd">
        <g id="Group">
            <g id="Avataaar/Default">
                <g id="Body" transform="translate(32.727273, 36.771429)">
                    <g id="path-1-link" fill="#D0C6AC" fill-rule="nonzero">
                        <path d="M102.272727,0 C133.903581,0 159.545455,25.6418734 159.545455,57.2727273 L159.545681,63.4982971 C165.349983,64.4721866 169.772727,69.520249 169.772727,75.6012987 L169.772727,89.8701299 C169.772727,96.0629335 165.185932,101.184434 159.224296,102.022677 C157.092106,122.248797 144.428798,139.336481 126.819102,147.702321 L126.818,166.492 L132.545455,166.492857 C172.309957,166.492857 204.545455,198.728355 204.545455,238.492857 L204.545455,249.228571 L0,249.228571 L0,238.492857 C0,198.728355 32.235498,166.492857 72,166.492857 L77.727,166.492 L77.7271218,147.702686 C60.1170253,139.336979 47.4533795,122.249091 45.3189272,102.021767 C39.3590107,101.183863 34.7727273,96.0625882 34.7727273,89.8701299 L34.7727273,75.6012987 C34.7727273,69.5199397 39.1959212,64.4716731 45.0006592,63.4981486 L45,57.2727273 C45,25.6418734 70.6418734,0 102.272727,0 Z" id="path-1"></path>
                    </g>
                    <g id="Skin/ðŸ‘¶ðŸ¼-04-Light-Clipped">
                        <mask id="mask-2" fill="white">
                            <use xlink:href="#path-1"></use>
                        </mask>
                        <g id="path-1"></g>
                        <g id="Skin/ðŸ‘¶ðŸ¼-04-Light" mask="url(#mask-2)">
                            <g transform="translate(-33.000000, 0.000000)" id="Color">
                                <g transform="translate(0.272727, 0.000000)">
                                    <rect id="Rectangle" fill="#EDB98A" fill-rule="nonzero" x="0" y="0" width="270" height="249"></rect>
                                </g>
                            </g>
                        </g>
                    </g>
                    <g id="Neck-Shadow-Clipped">
                        <mask id="mask-4" fill="white">
                            <use xlink:href="#path-3"></use>
                        </mask>
                        <g id="path-1"></g>
                        <path d="M45,95.9415584 C45,127.572412 70.6418734,153.214286 102.272727,153.214286 C133.903581,153.214286 159.545455,127.572412 159.545455,95.9415584 L159.545455,95.9415584 L159.545455,104.112987 C159.545455,135.743841 133.903581,161.385714 102.272727,161.385714 C70.6418734,161.385714 45,135.743841 45,104.112987 L45,95.9415584 Z" id="Neck-Shadow" fill-opacity="0.100000001" fill="#000000" fill-rule="nonzero" mask="url(#mask-4)"></path>
                    </g>
                </g>
                <g id="Clothing/Hoodie" transform="translate(32.000000, 186.642857)">
                    <g id="Hoodie" fill="#B7C1DB">
                        <path d="M160.251795,21.7500195 C186.648351,32.4262978 205.272727,58.3015448 205.272727,88.526748 L205.272727,99 L0.7272727,99 L0.7272727,88.526748 C0.7272727,58.3019213 19.3511855,32.4269425 45.7493557,21.7514667 C46.3612419,7.7895407 60.3537184,2.3251384 78.454364,0.3085999 L78.454545,19.4727273 C78.454545,33.0288075 89.44392,44.0181818 103,44.0181818 C116.55608,44.0181818 127.545455,33.0288075 127.545455,19.4727273 L127.545455,19.4727273 L127.546452,0.3085999 C145.646788,2.325168 159.63911,7.7893115 160.251795,21.7500195 Z" id="path-3"></path>
                    </g>
                    <g id="Color/Palette/Black-Clipped">
                        <mask id="mask-6" fill="white">
                            <use xlink:href="#path-5"></use>
                        </mask>
                        <g id="path-3"></g>
                        <g id="Color/Palette/Black" mask="url(#mask-6)" fill="#262E33">
                            <g transform="translate(-32.000000, -13.000000)" id="ðŸ–Color">
                                <rect x="0" y="0" width="270" height="112"></rect>
                            </g>
                        </g>
                    </g>
                    <g id="Straps-Clipped">
                        <mask id="mask-8" fill="white">
                            <use xlink:href="#path-7"></use>
                        </mask>
                        <g id="path-3"></g>
                        <path d="M72.317898,49.8614571 L72.318182,99 L65.1590909,99 L65.1578331,46.2067958 C67.4119539,47.5406444 69.808548,48.7634147 72.317898,49.8614571 Z M140.841618,46.2071205 L140.840909,87.275 C140.840909,89.251928 139.238292,90.854545 137.261364,90.854545 C135.284435,90.854545 133.681818,89.251928 133.681818,87.275 L133.682102,49.8614571 C136.191248,48.7635038 138.587657,47.5408429 140.841618,46.2071205 Z" id="Straps" fill="#F4F4F4" mask="url(#mask-8)"></path>
                    </g>
                    <g id="Shadow-Clipped">
                        <mask id="mask-10" fill="white">
                            <use xlink:href="#path-9"></use>
                        </mask>
                        <g id="path-3"></g>
                        <path d="M103,56.2363636 L101.973479,56.2314949 C68.104782,55.9105729 34.9886364,39.7651207 34.9886364,19.8951049 C34.9886364,8.6287715 45.635178,2.8539342 61.0288333,-0.0445627 C51.7367339,3.3659048 45.7272727,9.1000296 45.7272727,18.641958 C45.7272727,39.4047749 74.180778,56.2363636 103,56.2363636 Z M103,56.2363636 C131.819222,56.2363636 160.272727,39.4047749 160.272727,18.641958 C160.272727,9.0996704 154.262814,3.3654731 144.969554,-0.0454094 C160.363904,2.853436 171.011364,8.6282855 171.011364,19.8951049 C171.011364,39.9658279 137.222827,56.2363636 103,56.2363636 L103,56.2363636 Z" id="Shadow" fill-opacity="0.16" fill="#000000" mask="url(#mask-10)"></path>
                    </g>
                </g>
                <g id="Face" transform="translate(89.727273, 83.757143)" fill-rule="nonzero">
                    <g id="Mouth/Disbelief" transform="translate(30.045455, 68.114286)" fill="#000000" fill-opacity="0.699999988">
                        <path d="M0.7407407,0.3409091 C0.7407407,8.2486226 7.1248286,14.6590909 15,14.6590909 L15,14.6590909 C22.8751714,14.6590909 29.2592593,8.2486226 29.2592593,0.3409091" id="Mouth" transform="translate(15.000000, 7.500000) scale(-1, 1) rotate(-180.000000) translate(-15.000000, -7.500000) "></path>
                    </g>
                    <g id="Nose/Default" transform="translate(32.636364, 48.857143)" fill="#000000" fill-opacity="0.16">
                        <path d="M0.2857143,0.33333333 C0.2857143,4.9357062 5.7542363,8.6666667 12.5,8.6666667 L12.5,8.6666667 C19.2457637,8.6666667 24.7142857,4.9357062 24.7142857,0.33333333" id="Nose"></path>
                    </g>
                    <g id="Eyes/Default-ðŸ˜€" transform="translate(12.000000, 24.171429)" fill="#000000" fill-opacity="0.599999964">
                        <ellipse id="Eye" cx="6.8035714" cy="6.5" rx="6.16071429" ry="6.13636364"></ellipse>
                        <ellipse id="Eye" cx="60.1964286" cy="6.5" rx="6.16071429" ry="6.13636364"></ellipse>
                    </g>
                    <g id="Eyebrow/Natural/Raised-Excited-Natural" fill="#B58143">
                        <path d="M11.3761662,1.64421768 L12.3115117,1.224814 C17.6937183,-0.942985157 25.8519898,-0.0342426627 30.8403053,2.3949129 C31.4225469,2.67863497 31.0245355,3.59577302 30.4279164,3.54907298 C15.10938,2.35002288 4.7964553,12.0339523 1.2928571,18.5907228 C1.1889819,18.7851189 0.8750224,18.8071771 0.7973791,18.6258701 C-1.5716737,13.0854871 5.3664864,4.05848671 11.3761662,1.64421768 Z" id="Eye-Browse-Reddit"></path>
                        <path d="M70.9297382,1.64421768 L71.8650837,1.224814 C77.2472904,-0.942985157 85.4055619,-0.0342426627 90.3938776,2.3949129 C90.9761186,2.67863497 90.5781076,3.59577302 89.9814886,3.54907298 C74.662952,2.35002288 64.3500274,12.0339523 60.8464291,18.5907228 C60.7425539,18.7851189 60.4285945,18.8071771 60.3509511,18.6258701 C57.9818983,13.0854871 64.9200584,4.05848671 70.9297382,1.64421768 Z" id="Eye-Browse-Reddit" transform="translate(75.276786, 9.375000) scale(-1, 1) translate(-75.276786, -9.375000) "></path>
                    </g>
                </g>
                <g id="Top">
                    <g id="Top/Short-Hair/Short-Curly-Clipped">
                        <mask id="mask-12" fill="white">
                            <use xlink:href="#path-11"></use>
                        </mask>
                        <g id="path-5"></g>
                        <g id="Top/Short-Hair/Short-Curly" mask="url(#mask-12)">
                            <g transform="translate(72.000000, 9.000000)" id="Group">
                                <g transform="translate(0.977273, 0.000000)">
                                    <g id="Facial-Hair/Beard-Medium" transform="translate(1.105263, 90.542857)">
                                        <g id="Beardness" fill="#252E32">
                                            <path d="M61.5164441,69.6931649 C49.7310021,70.0787299 44.4737521,75.689569 40.514527,69.9874429 C37.5429122,65.7073354 38.7862965,58.5095811 41.5629188,54.4600078 C45.5137119,48.6969862 50.8733694,51.4844765 56.8661375,50.8270022 C58.495642,50.6483298 60.1325246,50.1976336 61.5164441,49.4605263 C62.9003635,50.1976336 64.5368947,50.6483298 66.1663993,50.8270022 C72.1595187,51.4844765 77.518825,48.6969862 81.469969,54.4600078 C84.24624,58.5095811 85.489625,65.7073354 82.51801,69.9874429 C78.558785,75.689569 73.301886,69.3075998 61.5164441,69.6931649 Z M118.733735,0.5131579 C115.227628,14.8657717 113.616667,29.5081262 111.074467,44.0264987 C110.544739,47.0529424 109.964779,50.0686051 109.348989,53.0802248 C109.219718,53.712601 109.092204,56.0608491 108.466578,56.3583388 C106.571432,57.2599043 102.709129,52.4653679 101.676371,51.3828828 C99.082534,48.6643729 96.510826,45.9212687 93.351782,43.7879679 C86.968707,39.4775681 79.495616,36.9288598 71.7193713,36.3241101 C68.4658331,36.0707553 64.0664257,36.5124416 61.0001187,38.3560017 C57.9338118,36.5124416 53.5344044,36.0707553 50.2805149,36.3241101 C42.5042707,36.9288598 35.0311794,39.4775681 28.6481043,43.7879679 C25.4890599,45.9212687 22.9177039,48.6643729 20.3235148,51.3828828 C19.2907571,52.4653679 15.4284539,57.2599043 13.5333083,56.3583388 C12.9076819,56.0608491 12.780168,53.712601 12.6508976,53.0802248 C12.035107,50.0686051 11.4551468,47.0529424 10.9254194,44.0264987 C8.3835707,29.5081262 6.7726092,14.8657717 3.266502,0.5131579 C2.2463903,0.5131579 1.3513336,19.6309971 1.2375195,21.4122292 C0.7741836,28.6466527 0.2332152,35.7200342 0.9245306,42.9608589 C2.1164174,55.4513827 3.3588882,71.1135575 12.9143562,80.651757 C21.5484217,89.270535 34.0843601,91.072333 44.8968261,96.512538 C46.2889414,97.212969 48.1356106,98.077812 50.1270064,98.786329 C52.2248394,100.38024 56.3853778,101.467105 61.1782168,101.467105 C66.2057096,101.467105 70.5373203,100.271419 72.5220419,98.548472 C74.2633276,97.890491 75.863751,97.136154 77.10306,96.512538 C87.914699,91.071138 100.451464,89.270535 109.08553,80.651757 C118.640998,71.1135575 119.883469,55.4513827 121.075707,42.9608589 C121.766671,35.7200342 121.225703,28.6466527 120.762718,21.4122292 C120.648553,19.6309971 119.753496,0.5131579 118.733735,0.5131579 Z" id="path-7"></path>
                                        </g>
                                        <g id="Color/Hair/Blonde-Clipped">
                                            <mask id="mask-14" fill="white">
                                                <use xlink:href="#path-13"></use>
                                            </mask>
                                            <g id="path-7"></g>
                                            <g id="Color/Hair/Blonde" mask="url(#mask-14)" fill="#B58143">
                                                <g transform="translate(-25.000000, -26.000000)" id="Color">
                                                    <rect x="0" y="0" width="172" height="155"></rect>
                                                </g>
                                            </g>
                                        </g>
                                    </g>
                                    <g id="Short-Hair" fill="#28354B">
                                        <path d="M22.3779102,44.1368745 C22.5036933,44.0813088 22.1915435,44.0599609 21.4414608,44.0729331 C22.3530997,44.0710945 22.6652495,44.0923402 22.3779102,44.1368745 M124.135696,63.2820736 C123.865629,59.894064 123.387076,56.5265696 122.583067,53.2163197 C121.944539,50.5853924 121.072067,48.07491 120.040307,45.5647585 C119.41726,44.0482776 117.961994,41.9653084 117.791008,40.3293752 C117.622431,38.7179281 118.881254,36.9327624 119.149945,35.0566011 C119.410724,33.2307356 119.366343,31.3108965 118.991345,29.5015756 C118.139515,25.3925509 115.316367,21.5714028 110.957103,20.5003033 C109.983829,20.2610679 107.926502,20.5558933 107.238776,19.989736 C106.450249,19.3405246 105.90117,17.1288383 105.187298,16.2417151 C103.151988,13.7127027 99.97758,12.0840492 96.629779,12.6518609 C94.164426,13.0697783 95.580129,13.5790221 93.731975,12.1297124 C92.704343,11.3239888 91.936458,10.09373 90.938413,9.221497 C89.438078,7.9111622 87.716872,6.7894362 85.936149,5.8688929 C81.276543,3.4603254 75.962239,1.7095725 70.757339,0.85620036 C61.262669,-0.70064948 51.129128,0.6566721 41.925856,3.1231458 C37.34641,4.3504266 32.736001,5.9079382 28.482701,7.9677448 C26.658973,8.8508973 25.6062266,9.5834936 23.7047469,9.8147875 C20.709925,10.1791003 18.1737013,10.1609012 15.3367913,11.4295436 C6.6079433,15.3334148 2.6763149,24.3902771 6.0729694,33.0573478 C6.7562222,34.8004902 7.6813315,36.3311996 8.9566681,37.7391477 C10.5117049,39.4558187 11.0742016,39.1179773 9.7348745,41.0920828 C7.7319046,44.0439759 6.0433824,47.1917576 4.6686198,50.460315 C1.06004,59.0420154 0.4562591,68.7073893 0.6912348,77.8595486 C0.7734591,81.063582 0.911073,84.3069916 1.4168039,87.4802519 C1.635266,88.8537872 1.6965041,91.436404 2.7279201,92.455554 C3.2511969,92.972408 3.99672,93.260615 4.740523,93.0548 C6.4885633,92.571035 5.8875347,91.282539 5.9281308,90.0863623 C6.1324874,84.0766903 5.8565715,78.7602383 7.2874118,72.8230318 C8.3442863,68.4363882 10.1057439,64.4524409 12.3884141,60.5300396 C15.2910347,55.5411714 18.4245026,51.159822 22.416337,46.8879981 C23.3548636,45.8834081 23.5599083,45.4575493 24.8183872,45.3847529 C25.7713633,45.3298247 27.165392,45.9816832 28.091877,46.207352 C30.134755,46.7046836 32.181418,47.1963901 34.261451,47.5312534 C38.085741,48.1470446 41.872531,48.1884062 45.731224,48.0676304 C53.325101,47.8303803 60.951662,47.298305 68.314348,45.3880618 C73.204113,44.1197504 77.539294,41.8428782 82.222982,40.1738557 C82.306583,40.1440754 83.480429,39.3085715 83.686162,39.3426534 C83.973431,39.3899711 85.70771,41.2075643 86.000483,41.436542 C88.276273,43.2193915 90.772588,43.9678706 93.230372,45.3483547 C96.26063,47.0504664 93.326014,44.6147657 94.997334,46.7361184 C95.484487,47.353895 95.733913,48.4994453 96.124736,49.1992832 C97.368077,51.4288377 99.097884,53.3883839 101.166908,54.9432484 C103.166094,56.4455009 106.170549,57.1711485 107.189924,59.1263931 C107.976043,60.6349326 108.24095,62.6851433 108.875349,64.2955978 C110.539445,68.5194422 112.737139,72.4583881 114.934832,76.4367103 C116.705235,79.642729 118.641806,82.4434042 118.838594,86.1070475 C118.907057,87.3823077 117.69227,95.031884 120.651313,92.705377 C121.089957,92.360587 122.035708,88.4603559 122.230088,87.7985706 C123.018615,85.1094062 123.299004,82.3021131 123.656112,79.5391596 C124.366199,74.0443565 124.599455,68.8162529 124.135696,63.2820736" id="path-9"></path>
                                    </g>
                                    <g id="Color/Hair/Blonde-Clipped">
                                        <mask id="mask-16" fill="white">
                                            <use xlink:href="#path-15"></use>
                                        </mask>
                                        <g id="path-9"></g>
                                        <g id="Color/Hair/Blonde" mask="url(#mask-16)">
                                            <g transform="translate(-73.000000, -9.000000)" id="Color">
                                                <g transform="translate(0.022556, 0.000000)">
                                                    <rect id="Rectangle" fill="#B58143" fill-rule="nonzero" x="0" y="0" width="270" height="286"></rect>
                                                </g>
                                            </g>
                                        </g>
                                    </g>
                                </g>
                            </g>
                        </g>
                    </g>
                </g>
            </g>
            <g id="Wayfarers" transform="translate(70.000000, 96.000000)" fill="#252C2F" fill-rule="nonzero">
                <path d="M35.4700694,0 C57.1829942,0 59,10.127 59,20.5 C59,32.5686429 48.7212748,41 34,41 L31.2421498,41 C17.3147125,41 9,33.3359286 9,20.5 C9,10.127 10.8170058,0 32.5299306,0 L35.4700694,0 Z M35.6146394,6 L32.3853606,6 C13,6 13,12.8410159 13,21.5015498 C13,28.5719428 16.116254,37 30.9709365,37 L34,37 C46.3649085,37 55,30.6270373 55,21.5015498 L54.9994766,20.7271501 C54.9825532,12.4367119 54.4184392,6 35.6146394,6 Z" id="Left"></path>
                <path d="M97.4700694,0 C119.182994,0 121,10.127 121,20.5 C121,32.5686429 110.721275,41 96,41 L93.2421498,41 C79.3147125,41 71,33.3359286 71,20.5 C71,10.127 72.8170058,0 94.5299306,0 L97.4700694,0 Z M97.6146394,6 L94.3853606,6 C75.5815608,6 75.0174468,12.4367119 75.0005234,20.7271501 L75,21.5015498 C75,28.5719428 78.1194833,37 92.9709365,37 L96,37 C108.364909,37 117,30.6270373 117,21.5015498 C117,12.8410159 117,6 97.6146394,6 Z" id="Right"></path>
                <path d="M2.95454545,5.77156439 C3.64590909,5.09629136 11.2095455,0 32.5,0 C50.3513636,0 54.1302273,1.85267217 59.8502273,4.6518809 L60.2689233,4.85850899 C60.6666014,4.99901896 62.7002447,5.68982981 65.0790606,5.76579519 C67.2462948,5.67278567 69.1000195,5.08540191 69.641698,4.89719767 C76.1703915,1.7220864 82.5610971,0 97.5,0 C118.790455,0 126.354091,5.09629136 127.045455,5.77156439 C128.679318,5.77156439 130,7.06150904 130,8.65734659 L130,11.5431288 C130,13.1389663 128.679318,14.428911 127.045455,14.428911 C127.045455,14.428911 120.143997,14.428911 120.143997,17.3146932 C120.143997,20.2004754 118.181818,13.1389663 118.181818,11.5431288 L118.181818,8.73240251 C114.578575,7.35340151 108.128411,4.78617535 97.5,4.78617535 C85.6584651,4.78617535 79.7610984,6.88602813 74.7022935,8.97112368 L74.7588636,9.10752861 L74.7563667,11.0937608 L72.5391666,16.4436339 L69.8004908,15.3608351 C69.5558969,15.2641292 69.0281396,15.090392 68.2963505,14.9099044 C66.256272,14.4067419 64.1589087,14.253569 62.3040836,14.6343084 C61.6235903,14.7739931 60.9922286,14.9836085 60.4128127,15.266732 L57.7704824,16.5578701 L55.1266751,11.3962031 L55.2440909,9.10175705 L55.3248203,8.90683855 C50.9620526,6.87386374 46.9392639,4.78617535 32.5,4.78617535 C21.8721459,4.78617535 15.422131,7.3524397 11.8181818,8.7314671 L11.8181818,11.5431288 C11.8181818,13.1389663 8.86363636,20.2004754 8.86363636,17.3146932 C8.86363636,14.428911 2.95454545,14.428911 2.95454545,14.428911 C1.32363636,14.428911 0,13.1389663 0,11.5431288 L0,8.65734659 C0,7.06150904 1.32363636,5.77156439 2.95454545,5.77156439 Z" id="Stuff"></path>
            </g>
        </g>
    </g>
</svg>