<?xml version="1.0" encoding="UTF-8"?>
<svg width="276px" height="276px" viewBox="0 0 276 276" version="1.1" xmlns="http://www.w3.org/2000/svg" xmlns:xlink="http://www.w3.org/1999/xlink">
    <!-- Generator: Sketch 57.1 (83088) - https://sketch.com -->
    <title>Untitled 3 copy</title>
    <desc>Created with Sketch.</desc>
    <g id="Page-1" stroke="none" stroke-width="1" fill="none" fill-rule="evenodd">
        <g id="chart-bar-solid-(1)" transform="translate(0.000000, 34.000000)" fill="#FAFAFA" fill-rule="nonzero">
            <path d="M179.4,138 L200.1,138 C203.55,138 207,134.55 207,131.1 L207,58.65 C207,55.2 203.55,51.75 200.1,51.75 L179.4,51.75 C175.95,51.75 172.5,55.2 172.5,58.65 L172.5,131.1 C172.5,134.55 175.95,138 179.4,138 L179.4,138 Z M231.15,138 L251.85,138 C255.3,138 258.75,134.55 258.75,131.1 L258.75,6.9 C258.75,3.45 255.3,0 251.85,0 L231.15,0 C227.7,0 224.25,3.45 224.25,6.9 L224.25,131.1 C224.25,134.55 227.7,138 231.15,138 Z M75.9,138 L96.6,138 C100.05,138 103.5,134.55 103.5,131.1 L103.5,93.15 C103.5,89.7 100.05,86.25 96.6,86.25 L75.9,86.25 C72.45,86.25 69,89.7 69,93.15 L69,131.1 C69,134.55 72.45,138 75.9,138 Z M127.65,138 L148.35,138 C151.8,138 155.25,134.55 155.25,131.1 L155.25,24.15 C155.25,20.7 151.8,17.25 148.35,17.25 L127.65,17.25 C124.2,17.25 120.75,20.7 120.75,24.15 L120.75,131.1 C120.75,134.55 124.2,138 127.65,138 L127.65,138 Z M267.375,172.5 L34.5,172.5 L34.5,8.625 C34.5,3.8596875 30.6403125,0 25.875,0 L8.625,0 C3.8596875,0 0,3.8596875 0,8.625 L0,189.75 C0,199.275234 7.72476562,207 17.25,207 L267.375,207 C272.140312,207 276,203.140312 276,198.375 L276,181.125 C276,176.359688 272.140312,172.5 267.375,172.5 Z" id="Shape"></path>
        </g>
    </g>
</svg>