<?xml version="1.0" encoding="UTF-8"?>
<svg width="264px" height="280px" viewBox="0 0 264 280" version="1.1" xmlns="http://www.w3.org/2000/svg" xmlns:xlink="http://www.w3.org/1999/xlink">
    <!-- Generator: Sketch 57.1 (83088) - https://sketch.com -->
    <title>Untitled</title>
    <desc>Created with Sketch.</desc>
    <defs>
        <path d="M100,0 C130.927946,0 156,25.072054 156,56 L156.000809,62.1660527 C161.675838,63.1185422 166,68.05429 166,74 L166,88 C166,94.0524166 161.519235,99.0582945 155.693975,99.8813638 C153.627928,119.686472 141.237929,136.421678 124.001014,144.610469 L124,163 L128,163 C167.764502,163 200,195.235498 200,235 L200,244 L0,244 L0,235 C0,195.235498 32.235498,163 72,163 L76,163 L75.9999836,144.610943 C58.7625487,136.422324 46.3721119,119.686854 44.3051107,99.8809698 C38.480765,99.0582945 34,94.0524166 34,88 L34,74 C34,68.053942 38.3246685,63.1179645 44.0001873,62.1658855 L44,56 C44,25.072054 69.072054,0 100,0 Z" id="path-1"></path>
        <path d="M100,0 C130.927946,0 156,25.072054 156,56 L156.000809,62.1660527 C161.675838,63.1185422 166,68.05429 166,74 L166,88 C166,94.0524166 161.519235,99.0582945 155.693975,99.8813638 C153.627928,119.686472 141.237929,136.421678 124.001014,144.610469 L124,163 L128,163 C167.764502,163 200,195.235498 200,235 L200,244 L0,244 L0,235 C0,195.235498 32.235498,163 72,163 L76,163 L75.9999836,144.610943 C58.7625487,136.422324 46.3721119,119.686854 44.3051107,99.8809698 C38.480765,99.0582945 34,94.0524166 34,88 L34,74 C34,68.053942 38.3246685,63.1179645 44.0001873,62.1658855 L44,56 C44,25.072054 69.072054,0 100,0 Z" id="path-3"></path>
        <path d="M155.997478,21.7419477 L155.994775,21.6445513 C181.853089,32.5674185 200,58.1642324 200,87.999485 L200,97 L0,97 L0,87.999485 C0,58.1638494 18.1473773,32.5667611 44.0062213,21.6441305 C44.281568,7.5515788 58.0823522,2.075879 76.000323,0.0708785 L76,19 C76,32.254834 86.745166,43 100,43 C113.254834,43 124,32.254834 124,19 L124,19 L124.001405,0.0708785 C141.960465,2.0808175 155.783368,7.5773078 155.997478,21.7419477 Z" id="path-5"></path>
        <path d="M155.997478,21.7419477 L155.994775,21.6445513 C181.853089,32.5674185 200,58.1642324 200,87.999485 L200,97 L0,97 L0,87.999485 C0,58.1638494 18.1473773,32.5667611 44.0062213,21.6441305 C44.281568,7.5515788 58.0823522,2.075879 76.000323,0.0708785 L76,19 C76,32.254834 86.745166,43 100,43 C113.254834,43 124,32.254834 124,19 L124,19 L124.001405,0.0708785 C141.960465,2.0808175 155.783368,7.5773078 155.997478,21.7419477 Z" id="path-7"></path>
        <path d="M155.997478,21.7419477 L155.994775,21.6445513 C181.853089,32.5674185 200,58.1642324 200,87.999485 L200,97 L0,97 L0,87.999485 C0,58.1638494 18.1473773,32.5667611 44.0062213,21.6441305 C44.281568,7.5515788 58.0823522,2.075879 76.000323,0.0708785 L76,19 C76,32.254834 86.745166,43 100,43 C113.254834,43 124,32.254834 124,19 L124,19 L124.001405,0.0708785 C141.960465,2.0808175 155.783368,7.5773078 155.997478,21.7419477 Z" id="path-9"></path>
        <rect id="path-11" x="0" y="0" width="264" height="280"></rect>
        <path d="M59.5044337,67.8410391 C47.9930718,68.2191416 42.8580835,73.7213834 38.9909333,68.1296214 C36.0884259,63.9323547 37.3028943,56.8739117 40.014944,52.9027173 C43.8738581,47.2512381 49.1088724,49.9847769 54.9622738,49.3400279 C56.5538829,49.1648137 58.1526985,48.7228407 59.5044337,48 C60.856169,48.7228407 62.4546414,49.1648137 64.0462504,49.3400279 C69.899995,49.9847769 75.134666,47.2512381 78.993923,52.9027173 C81.70563,56.8739117 82.920098,63.9323547 80.017591,68.1296214 C76.150441,73.7213834 71.0157956,67.4629366 59.5044337,67.8410391 Z M115.39109,0 C111.966521,14.0748212 110.393023,28.4337754 107.909944,42.6711471 C107.392536,45.6390145 106.826063,48.5963095 106.224594,51.5496398 C106.098329,52.1697764 105.973781,54.4725746 105.362704,54.7643064 C103.511632,55.6484223 99.739149,50.9466834 98.730409,49.8851496 C96.196893,47.219256 93.684993,44.5292442 90.599415,42.437233 C84.364783,38.2102603 77.065485,35.7108818 69.4700836,35.117837 C66.2922091,34.8693859 61.9951134,35.3025234 59.000116,37.1104016 C56.0051185,35.3025234 51.7080229,34.8693859 48.5298053,35.117837 C40.9344039,35.7108818 33.6351055,38.2102603 27.4004739,42.437233 C24.3148957,44.5292442 21.8033387,47.219256 19.2694796,49.8851496 C18.2607395,50.9466834 14.4882573,55.6484223 12.6371849,54.7643064 C12.0261079,54.4725746 11.9015594,52.1697764 11.7752954,51.5496398 C11.1738255,48.5963095 10.6073527,45.6390145 10.0899445,42.6711471 C7.6072086,28.4337754 6.0337113,14.0748212 2.6091415,0 C1.6127533,0 0.7385119,18.7478165 0.6273446,20.4945731 C0.174784,27.5889755 -0.3536037,34.5254529 0.3216346,41.6261326 C1.485803,53.8749043 2.6993791,69.2339402 12.032627,78.58753 C20.4659003,87.039493 32.7103052,88.806417 43.2713185,94.141327 C44.631059,94.828202 46.4347824,95.676306 48.3798667,96.37111 C50.4289129,97.934171 54.4926946,99 59.1740722,99 C64.0846465,99 68.3155222,97.827456 70.2540874,96.137856 C71.9548781,95.49261 73.5180822,94.752874 74.7285704,94.141327 C85.288776,88.805245 97.533989,87.039493 105.967262,78.58753 C115.30051,69.2339402 116.514086,53.8749043 117.678597,41.6261326 C118.353493,34.5254529 117.825105,27.5889755 117.372887,20.4945731 C117.261377,18.7478165 116.387136,0 115.39109,0 Z" id="path-13"></path>
        <path d="M21.2519269,43.0221149 C21.3749353,42.9677149 21.0696712,42.9468149 20.3361345,42.9595149 C21.2276637,42.9577149 21.5329279,42.9785149 21.2519269,43.0221149 M120.765056,61.7656665 C120.500946,58.448734 120.03295,55.1518864 119.246676,51.9110823 C118.622233,49.3353492 117.769007,46.8775343 116.760006,44.4200433 C116.150703,42.9353766 114.727538,40.8961062 114.560324,39.2944933 C114.395466,37.7168527 115.626521,35.969138 115.889285,34.1323368 C116.144311,32.3447761 116.100909,30.4652134 115.734183,28.6938503 C114.901144,24.6710288 112.140271,20.9300447 107.877167,19.8814158 C106.925362,19.6471994 104.913417,19.9358396 104.240862,19.3815597 C103.469729,18.7459682 102.932761,16.5806808 102.234637,15.7121687 C100.244224,13.2362125 97.13984,11.6417265 93.865887,12.1976261 C91.454917,12.606776 92.839391,13.1053363 91.032005,11.6864317 C90.027041,10.8976114 89.276095,9.6931622 88.300066,8.8392279 C86.832826,7.5563826 85.149588,6.4581893 83.408146,5.556958 C78.851325,3.19892 73.654249,1.4848961 68.564162,0.64942693 C59.278934,-0.87476173 49.368926,0.45408458 40.368668,2.8688141 C35.890239,4.0703477 31.381531,5.5951842 27.222053,7.6117782 C25.4385542,8.4764029 24.4090304,9.1936301 22.5494951,9.4200717 C19.6207355,9.7767416 17.1404579,9.7589243 14.3661268,11.0009517 C5.8298269,14.8229236 1.9849256,23.6897818 5.3066539,32.1750259 C5.974835,33.8815988 6.8795374,35.3801954 8.1267416,36.7586062 C9.6474761,38.4392631 10.1975648,38.1085093 8.8877817,40.0411999 C6.9289949,42.9311653 5.2777195,46.0129095 3.9332826,49.2128958 C0.4043038,57.6145606 -0.1861584,67.0771643 0.043634,76.0373203 C0.1240445,79.1741362 0.2586228,82.3495022 0.753198,85.4561907 C0.966841,86.8009106 1.0267283,89.3293468 2.0353925,90.3271154 C2.5471264,90.8331265 3.2762042,91.115288 4.0035997,90.9137903 C5.7130802,90.4401742 5.1253096,89.1787097 5.1650102,88.0076274 C5.364859,82.1240324 5.0950295,76.9191145 6.4943071,71.1064647 C7.5278683,66.8118486 9.2504702,62.9114806 11.4827873,59.0713675 C14.3213795,54.1871608 17.3857268,49.8977279 21.2895061,45.7155226 C22.2073299,44.7320079 22.4078515,44.3150832 23.6385698,44.243814 C24.5705244,44.1900382 25.9338023,44.8282213 26.8398505,45.0491558 C28.837665,45.5360539 30.83918,46.0174448 32.873331,46.3452831 C36.613261,46.9481556 40.316519,46.9886494 44.090094,46.8704074 C51.516459,46.6381346 58.974787,46.1172217 66.175061,44.2470535 C70.956964,43.00535 75.196516,40.7762443 79.776887,39.1422364 C79.858644,39.1130808 81.006596,38.2951049 81.207791,38.3284719 C81.488723,38.3747968 83.184746,40.1542588 83.471061,40.3784327 C85.696649,42.1238798 88.137899,42.8566566 90.541467,44.2081794 C93.504881,45.8745825 90.634999,43.4899804 92.269452,45.5668292 C92.745859,46.1716454 92.989782,47.2931632 93.371984,47.9783192 C94.587899,50.1610999 96.279548,52.0795367 98.302932,53.6017816 C100.258018,55.0725184 103.196198,55.7829426 104.193087,57.697168 C104.961865,59.1740599 105.220929,61.1812592 105.841334,62.7579279 C107.468722,66.8931602 109.617937,70.7494709 111.767152,74.6443317 C113.498502,77.7830913 115.392354,80.5250111 115.584801,84.1117947 C115.651754,85.3603012 114.463764,92.849397 117.357534,90.5716982 C117.786502,90.2341415 118.711391,86.415733 118.901483,85.7678314 C119.672616,83.135083 119.94682,80.3866841 120.29605,77.6816947 C120.990474,72.3021672 121.218584,67.1837441 120.765056,61.7656665" id="path-15"></path>
    </defs>
    <g id="Page-1" stroke="none" stroke-width="1" fill="none" fill-rule="evenodd">
        <g id="Group">
            <g id="Avataaar/Default">
                <g id="Body" transform="translate(32.000000, 36.000000)">
                    <g id="path-1-link" fill="#D0C6AC" fill-rule="nonzero">
                        <path d="M100,0 C130.927946,0 156,25.072054 156,56 L156.000809,62.1660527 C161.675838,63.1185422 166,68.05429 166,74 L166,88 C166,94.0524166 161.519235,99.0582945 155.693975,99.8813638 C153.627928,119.686472 141.237929,136.421678 124.001014,144.610469 L124,163 L128,163 C167.764502,163 200,195.235498 200,235 L200,244 L0,244 L0,235 C0,195.235498 32.235498,163 72,163 L76,163 L75.9999836,144.610943 C58.7625487,136.422324 46.3721119,119.686854 44.3051107,99.8809698 C38.480765,99.0582945 34,94.0524166 34,88 L34,74 C34,68.053942 38.3246685,63.1179645 44.0001873,62.1658855 L44,56 C44,25.072054 69.072054,0 100,0 Z" id="path-1"></path>
                    </g>
                    <g id="Skin/ðŸ‘¶ðŸ¼-04-Light-Clipped">
                        <mask id="mask-2" fill="white">
                            <use xlink:href="#path-1"></use>
                        </mask>
                        <g id="path-1"></g>
                        <g id="Skin/ðŸ‘¶ðŸ¼-04-Light" mask="url(#mask-2)">
                            <g transform="translate(-32.000000, 0.000000)" id="Color">
                                <g>
                                    <rect id="Rectangle" fill="#EDB98A" fill-rule="nonzero" x="0" y="0" width="264" height="244"></rect>
                                </g>
                            </g>
                        </g>
                    </g>
                    <g id="Neck-Shadow-Clipped">
                        <mask id="mask-4" fill="white">
                            <use xlink:href="#path-3"></use>
                        </mask>
                        <g id="path-1"></g>
                        <path d="M44,94 C44,124.927946 69.072054,150 100,150 C130.927946,150 156,124.927946 156,94 L156,94 L156,102 C156,132.927946 130.927946,158 100,158 C69.072054,158 44,132.927946 44,102 L44,94 Z" id="Neck-Shadow" fill-opacity="0.100000001" fill="#000000" fill-rule="nonzero" mask="url(#mask-4)"></path>
                    </g>
                </g>
                <g id="Clothing/Hoodie" transform="translate(32.000000, 183.000000)">
                    <g id="Hoodie" fill="#B7C1DB">
                        <path d="M155.997478,21.7419477 L155.994775,21.6445513 C181.853089,32.5674185 200,58.1642324 200,87.999485 L200,97 L0,97 L0,87.999485 C0,58.1638494 18.1473773,32.5667611 44.0062213,21.6441305 C44.281568,7.5515788 58.0823522,2.075879 76.000323,0.0708785 L76,19 C76,32.254834 86.745166,43 100,43 C113.254834,43 124,32.254834 124,19 L124,19 L124.001405,0.0708785 C141.960465,2.0808175 155.783368,7.5773078 155.997478,21.7419477 Z" id="path-3"></path>
                    </g>
                    <g id="Color/Palette/Black-Clipped">
                        <mask id="mask-6" fill="white">
                            <use xlink:href="#path-5"></use>
                        </mask>
                        <g id="path-3"></g>
                        <g id="Color/Palette/Black" mask="url(#mask-6)" fill="#262E33">
                            <g transform="translate(-32.000000, -13.000000)" id="ðŸ–Color">
                                <rect x="0" y="0" width="264" height="110"></rect>
                            </g>
                        </g>
                    </g>
                    <g id="Straps-Clipped">
                        <mask id="mask-8" fill="white">
                            <use xlink:href="#path-7"></use>
                        </mask>
                        <g id="path-3"></g>
                        <path d="M69.999618,48.7388852 L70,97 L63,97 L62.9990839,45.149718 C65.2029904,46.4596568 67.5461861,47.6605136 69.999618,48.7388852 Z M137.001367,45.1494501 L137,85.5 C137,87.432997 135.432997,89 133.5,89 C131.567003,89 130,87.432997 130,85.5 L130.001384,48.7384448 C132.454619,47.6601132 134.797629,46.4593148 137.001367,45.1494501 Z" id="Straps" fill="#F4F4F4" mask="url(#mask-8)"></path>
                    </g>
                    <g id="Shadow-Clipped">
                        <mask id="mask-10" fill="white">
                            <use xlink:href="#path-9"></use>
                        </mask>
                        <g id="path-3"></g>
                        <path d="M100,55 L98.99629,54.9952183 C65.8802308,54.680027 33.5,38.8228864 33.5,19.3076923 C33.5,8.2431784 43.908757,2.5714792 58.9589345,-0.2754196 C49.8748056,3.0747223 44,8.706273 44,18.0769231 C44,38.4689754 71.821205,55 100,55 Z M100,55 C128.178795,55 156,38.4689754 156,18.0769231 C156,8.706273 150.125194,3.0747223 141.040502,-0.275412 C156.091243,2.5714792 166.5,8.2431784 166.5,19.3076923 C166.5,39.0200095 133.462319,55 100,55 L100,55 Z" id="Shadow" fill-opacity="0.16" fill="#000000" mask="url(#mask-10)"></path>
                    </g>
                </g>
                <g id="Face" transform="translate(87.000000, 86.000000)" fill-rule="nonzero">
                    <g id="Mouth/Default" transform="translate(31.000000, 63.000000)" fill="#000000" fill-opacity="0.699999988">
                        <path d="M0,0 C0,7.7319865 6.2680135,14 14,14 L14,14 C21.7319865,14 28,7.7319865 28,0" id="Mouth"></path>
                    </g>
                    <g id="Nose/Default" transform="translate(33.000000, 44.000000)" fill="#000000" fill-opacity="0.16">
                        <path d="M0,0 C0,4.418278 5.372583,8 12,8 L12,8 C18.627417,8 24,4.418278 24,0" id="Nose"></path>
                    </g>
                    <g id="Eyes/Default-ðŸ˜€" transform="translate(13.000000, 20.000000)" fill="#000000" fill-opacity="0.599999964">
                        <circle id="Eye" cx="6" cy="6" r="6"></circle>
                        <circle id="Eye" cx="58" cy="6" r="6"></circle>
                    </g>
                    <g id="Eyebrow/Natural/Default-Natural" fill="#B58143">
                        <path d="M15.0390934,2.21012364 C9.2775554,2.98346216 0.2929313,8.0052479 1.04426,13.8178111 C1.0689481,14.0080543 1.3567302,14.0673468 1.4809077,13.9084937 C3.9674041,10.7203351 23.1927973,6.0365481 30.1942673,7.0147151 C30.8350523,7.1044465 31.2580662,6.4430343 30.8210501,6.0302067 C27.0765663,2.49485426 20.2003792,1.51224825 15.0390934,2.21012364" id="Eyebrow" transform="translate(16.000000, 8.000000) rotate(5.000000) translate(-16.000000, -8.000000) "></path>
                        <path d="M74.0390936,2.21012363 C68.2775556,2.98346215 59.2929315,8.00524789 60.0442602,13.8178111 C60.0689483,14.0080543 60.3567304,14.0673468 60.4809079,13.9084937 C62.9674043,10.7203351 82.1927975,6.03654809 89.1942672,7.01471509 C89.8350522,7.10444649 90.2580662,6.44303429 89.8210502,6.03020669 C86.0765665,2.49485425 79.2003794,1.51224824 74.0390936,2.21012363" id="Eyebrow" transform="translate(75.000000, 8.000000) scale(-1, 1) rotate(5.000000) translate(-75.000000, -8.000000) "></path>
                    </g>
                </g>
                <g id="Top">
                    <g id="Top/Short-Hair/Short-Curly-Clipped">
                        <mask id="mask-12" fill="white">
                            <use xlink:href="#path-11"></use>
                        </mask>
                        <g id="path-5"></g>
                        <g id="Top/Short-Hair/Short-Curly" mask="url(#mask-12)">
                            <g transform="translate(72.000000, 9.000000)" id="Group">
                                <g>
                                    <g id="Facial-Hair/Beard-Medium" transform="translate(1.000000, 89.000000)">
                                        <g id="Beardness" fill="#252E32">
                                            <path d="M59.5044337,67.8410391 C47.9930718,68.2191416 42.8580835,73.7213834 38.9909333,68.1296214 C36.0884259,63.9323547 37.3028943,56.8739117 40.014944,52.9027173 C43.8738581,47.2512381 49.1088724,49.9847769 54.9622738,49.3400279 C56.5538829,49.1648137 58.1526985,48.7228407 59.5044337,48 C60.856169,48.7228407 62.4546414,49.1648137 64.0462504,49.3400279 C69.899995,49.9847769 75.134666,47.2512381 78.993923,52.9027173 C81.70563,56.8739117 82.920098,63.9323547 80.017591,68.1296214 C76.150441,73.7213834 71.0157956,67.4629366 59.5044337,67.8410391 Z M115.39109,0 C111.966521,14.0748212 110.393023,28.4337754 107.909944,42.6711471 C107.392536,45.6390145 106.826063,48.5963095 106.224594,51.5496398 C106.098329,52.1697764 105.973781,54.4725746 105.362704,54.7643064 C103.511632,55.6484223 99.739149,50.9466834 98.730409,49.8851496 C96.196893,47.219256 93.684993,44.5292442 90.599415,42.437233 C84.364783,38.2102603 77.065485,35.7108818 69.4700836,35.117837 C66.2922091,34.8693859 61.9951134,35.3025234 59.000116,37.1104016 C56.0051185,35.3025234 51.7080229,34.8693859 48.5298053,35.117837 C40.9344039,35.7108818 33.6351055,38.2102603 27.4004739,42.437233 C24.3148957,44.5292442 21.8033387,47.219256 19.2694796,49.8851496 C18.2607395,50.9466834 14.4882573,55.6484223 12.6371849,54.7643064 C12.0261079,54.4725746 11.9015594,52.1697764 11.7752954,51.5496398 C11.1738255,48.5963095 10.6073527,45.6390145 10.0899445,42.6711471 C7.6072086,28.4337754 6.0337113,14.0748212 2.6091415,0 C1.6127533,0 0.7385119,18.7478165 0.6273446,20.4945731 C0.174784,27.5889755 -0.3536037,34.5254529 0.3216346,41.6261326 C1.485803,53.8749043 2.6993791,69.2339402 12.032627,78.58753 C20.4659003,87.039493 32.7103052,88.806417 43.2713185,94.141327 C44.631059,94.828202 46.4347824,95.676306 48.3798667,96.37111 C50.4289129,97.934171 54.4926946,99 59.1740722,99 C64.0846465,99 68.3155222,97.827456 70.2540874,96.137856 C71.9548781,95.49261 73.5180822,94.752874 74.7285704,94.141327 C85.288776,88.805245 97.533989,87.039493 105.967262,78.58753 C115.30051,69.2339402 116.514086,53.8749043 117.678597,41.6261326 C118.353493,34.5254529 117.825105,27.5889755 117.372887,20.4945731 C117.261377,18.7478165 116.387136,0 115.39109,0 Z" id="path-7"></path>
                                        </g>
                                        <g id="Color/Hair/Blonde-Clipped">
                                            <mask id="mask-14" fill="white">
                                                <use xlink:href="#path-13"></use>
                                            </mask>
                                            <g id="path-7"></g>
                                            <g id="Color/Hair/Blonde" mask="url(#mask-14)" fill="#B58143">
                                                <g transform="translate(-25.000000, -26.000000)" id="Color">
                                                    <rect x="0" y="0" width="168" height="152"></rect>
                                                </g>
                                            </g>
                                        </g>
                                    </g>
                                    <g id="Short-Hair" fill="#28354B">
                                        <path d="M21.2519269,43.0221149 C21.3749353,42.9677149 21.0696712,42.9468149 20.3361345,42.9595149 C21.2276637,42.9577149 21.5329279,42.9785149 21.2519269,43.0221149 M120.765056,61.7656665 C120.500946,58.448734 120.03295,55.1518864 119.246676,51.9110823 C118.622233,49.3353492 117.769007,46.8775343 116.760006,44.4200433 C116.150703,42.9353766 114.727538,40.8961062 114.560324,39.2944933 C114.395466,37.7168527 115.626521,35.969138 115.889285,34.1323368 C116.144311,32.3447761 116.100909,30.4652134 115.734183,28.6938503 C114.901144,24.6710288 112.140271,20.9300447 107.877167,19.8814158 C106.925362,19.6471994 104.913417,19.9358396 104.240862,19.3815597 C103.469729,18.7459682 102.932761,16.5806808 102.234637,15.7121687 C100.244224,13.2362125 97.13984,11.6417265 93.865887,12.1976261 C91.454917,12.606776 92.839391,13.1053363 91.032005,11.6864317 C90.027041,10.8976114 89.276095,9.6931622 88.300066,8.8392279 C86.832826,7.5563826 85.149588,6.4581893 83.408146,5.556958 C78.851325,3.19892 73.654249,1.4848961 68.564162,0.64942693 C59.278934,-0.87476173 49.368926,0.45408458 40.368668,2.8688141 C35.890239,4.0703477 31.381531,5.5951842 27.222053,7.6117782 C25.4385542,8.4764029 24.4090304,9.1936301 22.5494951,9.4200717 C19.6207355,9.7767416 17.1404579,9.7589243 14.3661268,11.0009517 C5.8298269,14.8229236 1.9849256,23.6897818 5.3066539,32.1750259 C5.974835,33.8815988 6.8795374,35.3801954 8.1267416,36.7586062 C9.6474761,38.4392631 10.1975648,38.1085093 8.8877817,40.0411999 C6.9289949,42.9311653 5.2777195,46.0129095 3.9332826,49.2128958 C0.4043038,57.6145606 -0.1861584,67.0771643 0.043634,76.0373203 C0.1240445,79.1741362 0.2586228,82.3495022 0.753198,85.4561907 C0.966841,86.8009106 1.0267283,89.3293468 2.0353925,90.3271154 C2.5471264,90.8331265 3.2762042,91.115288 4.0035997,90.9137903 C5.7130802,90.4401742 5.1253096,89.1787097 5.1650102,88.0076274 C5.364859,82.1240324 5.0950295,76.9191145 6.4943071,71.1064647 C7.5278683,66.8118486 9.2504702,62.9114806 11.4827873,59.0713675 C14.3213795,54.1871608 17.3857268,49.8977279 21.2895061,45.7155226 C22.2073299,44.7320079 22.4078515,44.3150832 23.6385698,44.243814 C24.5705244,44.1900382 25.9338023,44.8282213 26.8398505,45.0491558 C28.837665,45.5360539 30.83918,46.0174448 32.873331,46.3452831 C36.613261,46.9481556 40.316519,46.9886494 44.090094,46.8704074 C51.516459,46.6381346 58.974787,46.1172217 66.175061,44.2470535 C70.956964,43.00535 75.196516,40.7762443 79.776887,39.1422364 C79.858644,39.1130808 81.006596,38.2951049 81.207791,38.3284719 C81.488723,38.3747968 83.184746,40.1542588 83.471061,40.3784327 C85.696649,42.1238798 88.137899,42.8566566 90.541467,44.2081794 C93.504881,45.8745825 90.634999,43.4899804 92.269452,45.5668292 C92.745859,46.1716454 92.989782,47.2931632 93.371984,47.9783192 C94.587899,50.1610999 96.279548,52.0795367 98.302932,53.6017816 C100.258018,55.0725184 103.196198,55.7829426 104.193087,57.697168 C104.961865,59.1740599 105.220929,61.1812592 105.841334,62.7579279 C107.468722,66.8931602 109.617937,70.7494709 111.767152,74.6443317 C113.498502,77.7830913 115.392354,80.5250111 115.584801,84.1117947 C115.651754,85.3603012 114.463764,92.849397 117.357534,90.5716982 C117.786502,90.2341415 118.711391,86.415733 118.901483,85.7678314 C119.672616,83.135083 119.94682,80.3866841 120.29605,77.6816947 C120.990474,72.3021672 121.218584,67.1837441 120.765056,61.7656665" id="path-9"></path>
                                    </g>
                                    <g id="Color/Hair/Blonde-Clipped">
                                        <mask id="mask-16" fill="white">
                                            <use xlink:href="#path-15"></use>
                                        </mask>
                                        <g id="path-9"></g>
                                        <g id="Color/Hair/Blonde" mask="url(#mask-16)">
                                            <g transform="translate(-72.000000, -9.000000)" id="Color">
                                                <g>
                                                    <rect id="Rectangle" fill="#B58143" fill-rule="nonzero" x="0" y="0" width="264" height="280"></rect>
                                                </g>
                                            </g>
                                        </g>
                                    </g>
                                </g>
                            </g>
                        </g>
                    </g>
                </g>
            </g>
            <g id="Wayfarers" transform="translate(67.000000, 93.000000)" fill="#252C2F" fill-rule="nonzero">
                <path d="M35.4700694,0 C57.1829942,0 59,10.127 59,20.5 C59,32.5686429 48.7212748,41 34,41 L31.2421498,41 C17.3147125,41 9,33.3359286 9,20.5 C9,10.127 10.8170058,0 32.5299306,0 L35.4700694,0 Z M35.6146394,6 L32.3853606,6 C13,6 13,12.8410159 13,21.5015498 C13,28.5719428 16.116254,37 30.9709365,37 L34,37 C46.3649085,37 55,30.6270373 55,21.5015498 L54.9994766,20.7271501 C54.9825532,12.4367119 54.4184392,6 35.6146394,6 Z" id="Left"></path>
                <path d="M97.4700694,0 C119.182994,0 121,10.127 121,20.5 C121,32.5686429 110.721275,41 96,41 L93.2421498,41 C79.3147125,41 71,33.3359286 71,20.5 C71,10.127 72.8170058,0 94.5299306,0 L97.4700694,0 Z M97.6146394,6 L94.3853606,6 C75.5815608,6 75.0174468,12.4367119 75.0005234,20.7271501 L75,21.5015498 C75,28.5719428 78.1194833,37 92.9709365,37 L96,37 C108.364909,37 117,30.6270373 117,21.5015498 C117,12.8410159 117,6 97.6146394,6 Z" id="Right"></path>
                <path d="M2.95454545,5.77156439 C3.64590909,5.09629136 11.2095455,0 32.5,0 C50.3513636,0 54.1302273,1.85267217 59.8502273,4.6518809 L60.2689233,4.85850899 C60.6666014,4.99901896 62.7002447,5.68982981 65.0790606,5.76579519 C67.2462948,5.67278567 69.1000195,5.08540191 69.641698,4.89719767 C76.1703915,1.7220864 82.5610971,0 97.5,0 C118.790455,0 126.354091,5.09629136 127.045455,5.77156439 C128.679318,5.77156439 130,7.06150904 130,8.65734659 L130,11.5431288 C130,13.1389663 128.679318,14.428911 127.045455,14.428911 C127.045455,14.428911 120.143997,14.428911 120.143997,17.3146932 C120.143997,20.2004754 118.181818,13.1389663 118.181818,11.5431288 L118.181818,8.73240251 C114.578575,7.35340151 108.128411,4.78617535 97.5,4.78617535 C85.6584651,4.78617535 79.7610984,6.88602813 74.7022935,8.97112368 L74.7588636,9.10752861 L74.7563667,11.0937608 L72.5391666,16.4436339 L69.8004908,15.3608351 C69.5558969,15.2641292 69.0281396,15.090392 68.2963505,14.9099044 C66.256272,14.4067419 64.1589087,14.253569 62.3040836,14.6343084 C61.6235903,14.7739931 60.9922286,14.9836085 60.4128127,15.266732 L57.7704824,16.5578701 L55.1266751,11.3962031 L55.2440909,9.10175705 L55.3248203,8.90683855 C50.9620526,6.87386374 46.9392639,4.78617535 32.5,4.78617535 C21.8721459,4.78617535 15.422131,7.3524397 11.8181818,8.7314671 L11.8181818,11.5431288 C11.8181818,13.1389663 8.86363636,20.2004754 8.86363636,17.3146932 C8.86363636,14.428911 2.95454545,14.428911 2.95454545,14.428911 C1.32363636,14.428911 0,13.1389663 0,11.5431288 L0,8.65734659 C0,7.06150904 1.32363636,5.77156439 2.95454545,5.77156439 Z" id="Stuff"></path>
            </g>
        </g>
    </g>
</svg>